<?xml version="1.0" standalone="no"?>
<!DOCTYPE svg PUBLIC "-//W3C//DTD SVG 20010904//EN"
 "http://www.w3.org/TR/2001/REC-SVG-20010904/DTD/svg10.dtd">
<svg version="1.0" xmlns="http://www.w3.org/2000/svg"
 width="100.000000pt" height="100.000000pt" viewBox="0 0 100.000000 100.000000"
 preserveAspectRatio="xMidYMid meet">
<metadata>
Created by potrace 1.11, written by Peter Selinger 2001-2013
</metadata>
<g transform="translate(0.000000,100.000000) scale(0.100000,-0.100000)"
fill="#000000" stroke="none">
<path d="M485 983 c-51 -8 -55 -18 -55 -120 l0 -94 -35 -15 c-19 -8 -35 -19
-35 -24 0 -5 -6 -7 -12 -5 -15 6 -277 -100 -296 -119 -10 -10 -7 -26 16 -84
35 -86 299 -500 323 -507 16 -5 152 68 279 150 19 13 78 48 131 79 92 53 97
58 122 114 15 33 27 68 27 79 0 12 -67 79 -185 183 l-184 165 -1 86 c0 81 -2
88 -25 103 -13 9 -28 15 -32 15 -4 -1 -21 -4 -38 -6z m-244 -354 c18 -18 19
-23 6 -42 -23 -35 -108 -36 -121 -2 -8 22 37 65 69 65 14 0 34 -9 46 -21z m79
-19 c0 -5 -5 -10 -11 -10 -5 0 -7 5 -4 10 3 6 8 10 11 10 2 0 4 -4 4 -10z
m390 -10 c0 -5 -2 -10 -4 -10 -3 0 -8 5 -11 10 -3 6 -1 10 4 10 6 0 11 -4 11
-10z m15 -30 c3 -5 1 -10 -4 -10 -6 0 -11 5 -11 10 0 6 2 10 4 10 3 0 8 -4 11
-10z m-125 -25 c0 -8 -4 -15 -10 -15 -5 0 -7 7 -4 15 4 8 8 15 10 15 2 0 4 -7
4 -15z m145 -25 c3 -5 1 -10 -4 -10 -6 0 -11 5 -11 10 0 6 2 10 4 10 3 0 8 -4
11 -10z m-562 -103 c16 -20 29 -40 30 -44 1 -4 7 -15 14 -23 71 -89 143 -205
122 -198 -8 3 -14 10 -14 16 0 6 -14 26 -31 46 -17 19 -29 38 -26 41 3 3 0 5
-7 5 -7 0 -9 5 -6 10 3 6 1 10 -4 10 -6 0 -11 7 -11 15 0 8 -4 15 -8 15 -5 0
-34 42 -66 93 -54 89 -53 91 7 14z m314 67 c-3 -3 -12 -4 -19 -1 -8 3 -5 6 6
6 11 1 17 -2 13 -5z m243 -28 c0 -3 -4 -8 -10 -11 -5 -3 -10 -1 -10 4 0 6 5
11 10 11 6 0 10 -2 10 -4z m-458 -28 c-7 -7 -12 -8 -12 -2 0 14 12 26 19 19 2
-3 -1 -11 -7 -17z m23 -18 c3 -5 -1 -10 -10 -10 -9 0 -13 5 -10 10 3 6 8 10
10 10 2 0 7 -4 10 -10z m387 -22 c-7 -7 -12 -8 -12 -2 0 14 12 26 19 19 2 -3
-1 -11 -7 -17z m-352 -8 c0 -5 -2 -10 -4 -10 -3 0 -8 5 -11 10 -3 6 -1 10 4
10 6 0 11 -4 11 -10z m330 -10 c0 -5 -4 -10 -10 -10 -5 0 -10 5 -10 10 0 6 5
10 10 10 6 0 10 -4 10 -10z m-295 -10 c3 -5 2 -10 -4 -10 -5 0 -13 5 -16 10
-3 6 -2 10 4 10 5 0 13 -4 16 -10z m265 -4 c0 -2 -7 -6 -15 -10 -8 -3 -15 -1
-15 4 0 6 7 10 15 10 8 0 15 -2 15 -4z m-183 -22 c-3 -3 -12 -4 -19 -1 -8 3
-5 6 6 6 11 1 17 -2 13 -5z m50 -10 c-3 -3 -12 -4 -19 -1 -8 3 -5 6 6 6 11 1
17 -2 13 -5z"/>
</g>
</svg>
