<svg width="1920" height="1200" xmlns="http://www.w3.org/2000/svg">
  <defs>
    <filter id="blur">
      <feGaussianBlur stdDeviation="5" />
    </filter>
  </defs>
  <g class="currentLayer" stroke="null" fill="#366">
    <path opacity=".99" d="M-276.249932 869.760797v17.241729h2446.014175v-17.241729H-276.249932zm-.000025-242.13614l.000025 11.48192h2446.014175v-11.482519l-2446.014201.000598zm.000025-161.377555l-.000025 7.622302h2446.014175v-7.622302h-2446.01415zm0-107.644872v5.103209h2446.014175v-5.103209H-276.249932zm0-71.743302v3.396887h2446.014175v-3.396887H-276.249932zm0-47.828869v2.274963h2446.014175v-2.274963H-276.249932zm0-31.872615v1.503677l2446.014175.000399v-1.503677l-2446.014175-.000399zm0-21.261708v1.012843h2446.014175v-1.012843H-276.249932zm0-14.18112v.670043l2446.014175.000578v-.670043l-2446.014175-.000578zm0-9.434134v.444082h2446.014175v-.444082H-276.249932zm0-6.30272v.280471h2446.014175v-.280471H-276.249932zm0-4.208462v.202585l2446.014175-.000279v-.202585l-2446.014175.000279zm-.000025-4.687149v.186888h2446.014175v-.186888H-276.249957zm0-1.256555v.187885l2446.014175-.000997v-.186888H-276.249957zm0-.877594v.186888h2446.014175v-.186888H-276.249957zm0 3.989063v.186888h2446.014175v-.186888H-276.249957z"/>
    <g fill-rule="evenodd">
      <path d="M-434.254208 1205.013941C35.762909 853.689342 505.765338 502.364743 975.782455 151.040145 518.000089 502.364744 60.217723 853.689343-397.549956 1205.013941h-36.704253z" transform="matrix(1.01143 0 0 1 -27.03794 0)"/>
      <path d="M-466.2243788 877.110982v-16.856359C9.1495734 623.852204 484.5235257 387.469303 959.8974789 151.066884h.0000739C484.5236005 393.070978 9.1496483 635.094591-466.224305 877.098685l-.0000738.012296zm0-411.830501C9.1495734 360.511582 484.5235257 255.734876 959.8974789 150.962073 484.5235267 258.219521 9.1495745 365.484777-466.2243788 472.736369" stroke="none"/>
      <path d="M-466.2243788 364.95779v-4.993884h.0001487L959.8976276 150.984324h.0000739C484.5237492 222.309073 9.149797 293.633822-466.2241563 364.960523l-.0002225-.002733z" stroke="none"/>
      <path d="M-466.2243788 289.813361c475.3739522-46.257739 950.7479045-92.517429 1426.1218577-138.77712C484.5235267 198.402604 9.1495745 245.768967-466.2243788 293.137282" stroke="none"/>
      <path d="M-466.2243788 245.312246v-2.226227h.0001487C9.149722 212.430996 484.5236744 181.775973 959.8976276 151.122902h.0000739l-1426.1218578 94.190125-.0002225-.000781zm0-32.009575v-1.471465l1426.1218577-60.7733h.0001487L-466.22423 213.302866l-.0001487-.000195z" stroke="none"/>
      <path d="M-466.2243788 634.501829v-11.238093h.0001487L959.8976276 151.024921h.0000739L-466.2241563 634.506123l-.0002225-.004294z" stroke="none"/>
      <path d="M-466.2243788 192.028015v-.991126c475.3739522-13.322034 950.7479045-26.644067 1426.1218577-39.967077h.0000739L-466.224305 192.026453l-.0000738.001561z" stroke="none"/>
      <path d="M-466.2243788 177.19431v.655611c475.3739522-8.894173 950.7479045-17.795567 1426.1218577-26.753368h.0000739C484.5236005 159.79574 9.1496483 168.495123-466.224305 177.194115l-.0000738.000195zm0-9.368656v.434667c475.3739522-5.76387 950.7479045-11.527936 1426.1218577-17.291806h.0000739l-1426.1218578 16.85714h-.0000738z" stroke="none"/>
      <path d="M-466.2243788 161.775063c475.3739522-3.565554 950.7479045-7.131304 1426.1218577-10.696858l-1426.1218577 10.971282" stroke="none"/>
      <path d="M-466.2243788 157.871457v-.198303l1426.1218577-6.579724h.0000739c-475.3739523 2.259408-950.7479045 4.51862-1426.1218578 6.778027h-.0000738z" stroke="none"/>
      <path d="M-466.2326685 155.138932c475.3739523-1.344792 950.7479045-2.68978 1426.1218578-4.034573-475.3739523 1.344792-950.7479045 2.68978-1426.1218578 4.034573z" stroke="none"/>
      <path d="M122.259057 1205.013941C406.77209 853.689342 691.285123 502.364743 975.783468 151.040145c-.000029 0-.000059 0-.000088.000195-272.278282 351.324599-544.541877 702.649198-816.820159 1053.973796h-36.710127l.005963-.000195z" transform="matrix(1.01143 0 0 1 -27.03794 0)"/>
      <path d="M678.771308 1205.013941c99.003074-351.324599 198.003211-702.649198 297.01216-1053.973796-.000015 0-.000015 0-.000029.000195-86.766855 351.324599-173.533709 702.649198-260.29322 1053.973796h-36.710127l-.008783-.000195z" transform="matrix(1.01143 0 0 1 -27.03794 0)"/>
      <path d="M2385.790756 1205.013941C1915.773639 853.689342 1445.77121 502.364743 975.754093 151.040145c.000044 0 .000088 0 .000147.000195 457.782366 351.324599 915.564732 702.649198 1373.332411 1053.973796h36.701315l.002791-.000195z" transform="matrix(1.01143 0 0 1 -27.03794 0)"/>
      <path d="M1829.278505 1205.013941c-284.513033-351.324599-569.026066-702.649198-853.524411-1053.973796.000029 0 .000059 0 .000088.000195 272.278282 351.324599 544.541877 702.649198 816.820159 1053.973796h36.710127l-.005963-.000195z" transform="matrix(1.01143 0 0 1 -27.03794 0)"/>
      <path d="M1272.766253 1205.013941c-99.003074-351.324599-198.003211-702.649198-297.01216-1053.973796.000015 0 .000015 0 .000029.000195 86.766855 351.324599 173.533709 702.649198 260.29322 1053.973796h36.710127l.008783-.000195z" transform="matrix(1.01143 0 0 1 -27.03794 0)"/>
      <path d="M2386.0193357 877.110982v-16.856359h-.0001487c-475.3739522-236.402419-950.7479045-472.78532-1426.1218577-709.187739h-.0000739c475.3739523 242.004094 950.7479045 484.027707 1426.1218578 726.031801l.0002225.012296zm0-411.830501c-475.3739523-104.768899-950.7479045-209.545605-1426.1218578-314.318408 475.3739523 107.257448 950.7479045 214.522704 1426.1218578 321.774296" stroke="none"/>
      <path d="M2386.0193357 364.95779v-4.993884h-.0001487c-475.3739522-69.659861-950.7479045-139.319721-1426.1367126-208.979582h-.0000738c475.3739522 71.324749 950.7479045 142.649498 1426.1367126 213.976199l.0002225-.002733z" stroke="none"/>
      <path d="M2386.0193357 289.813361c-475.3739523-46.257739-950.7479045-92.517429-1426.1367126-138.77712 475.3739522 47.366363 950.7479045 94.732726 1426.1367126 142.101041" stroke="none"/>
      <path d="M2386.0193357 245.312246v-2.226227c-475.3739523-30.655023-950.7479045-61.310046-1426.1367126-91.963117h-.0000739c475.3739523 31.396708 950.7479045 62.793417 1426.1367126 94.190125l.0000739-.000781zm0-32.009575v-1.471465h-.0001487c-475.3739522-20.257767-950.7479045-40.515533-1426.1367126-60.7733h-.0000738c475.3739522 20.747669 950.7479045 41.495339 1426.1367126 62.24496l.0002225-.000195z" stroke="none"/>
      <path d="M2386.0193357 634.501829v-11.236532C1910.6453834 465.852359 1435.2714312 308.43942 959.882623 151.026482h-.0000739c475.3739523 161.158449 950.7479045 322.320801 1426.1367126 483.481202l.0000739-.005855z" stroke="none"/>
      <path d="M2386.0193357 192.028015v-.991126c-475.3739523-13.322034-950.7479045-26.644067-1426.1367126-39.967077h-.0001487c475.3739522 13.652474 950.7479045 27.305729 1426.1367126 40.956641l.0001487.001561z" stroke="none"/>
      <path d="M2386.0193357 177.19431v.655611c-475.3739523-8.894173-950.7479045-17.795567-1426.1218578-26.753368h-.0000738c475.3739522 8.699187 950.7479045 17.39857 1426.1218577 26.097562l.0000739.000195zm0-9.368656v.434667h-.0001487c-475.3739522-5.76387-950.7479045-11.527936-1426.1367126-17.291806h-.0000738c475.3739522 5.619047 950.7479045 11.238093 1426.1367126 16.85714h.0002225z" stroke="none"/>
      <path d="M2386.0193357 161.775063c-475.3739523-3.565554-950.7479045-7.131304-1426.1367126-10.696858 475.3739522 3.657094 950.7479045 7.314188 1426.1367126 10.971282" stroke="none"/>
      <path d="M2386.0193357 157.871457v-.198303h-.0001487c-475.3739522-2.193241-950.7479045-4.386483-1426.1367126-6.579724h-.0000738c475.3739522 2.259408 950.7479045 4.51862 1426.1367126 6.778027h.0002225z" stroke="none"/>
      <path d="M2386.0193357 155.138932c-475.3739523-1.344792-950.7479045-2.68978-1426.1218578-4.034573 475.3739523 1.344792 950.7479045 2.68978 1426.1218578 4.034573zm-2852.2437145-.19518v-.179566l1426.1218577-3.806016h.0000739c-475.3739523 1.328593-950.7479045 2.65699-1426.1218578 3.985582h-.0000738z" stroke="none"/>
      <path d="M2386.0193357 154.943752v-.179566L959.8974779 150.95817h-.0000738c475.3739522 1.328593 950.7479045 2.65699 1426.1218577 3.985582h.0000739zm-2852.2437145-1.756623l1426.1218577-2.160646-1426.1218577 2.160646z" stroke="none"/>
      <path d="M959.897478 153.187129l-1426.1218578-2.160646 1426.1218577 2.160646z" stroke="none"/>
      <path d="M-466.2243788 153.187129c475.3739522-.717678 950.7479045-1.435161 1426.1218577-2.152839-475.3739522.717678-950.7479044 1.435161-1426.1218577 2.152839z" stroke="none"/>
      <path d="M2386.0193357 153.187129c-475.3739523-.717678-950.7479045-1.435161-1426.1218578-2.152839 475.3739523.717678 950.7479045 1.435161 1426.1218578 2.152839zm-2852.2437145-1.171082v-.18347c475.3739522-.252368 950.7479045-.504932 1426.1218577-.7573h.0000739c-475.3739523.313655-950.7479045.627114-1426.1218578.940769h-.0000738z" stroke="none"/>
      <path d="M2386.0193357 152.016047v-.18347c-475.3739523-.252368-950.7479045-.504932-1426.1218578-.7573h-.0000738c475.3739522.313655 950.7479045.627114 1426.1218577.940769h.0000739zm-2852.2437145 1.171082v-.18347h.0001487c475.3739522-.659124 950.7479045-1.318053 1426.1218577-1.977177h.0000739l-1426.1218578 2.160646h-.0002225z" stroke="none"/>
      <path d="M2386.0193357 153.187129v-.18347h-.0001487c-475.3739522-.659124-950.7479045-1.318053-1426.1218577-1.977177h-.0000739l1426.1218578 2.160646h.0002225z" stroke="none"/>
    </g>
  </g>
  <path fill="none" d="M0-12.5h2100v1050H0z"/>
  <path fill="none" d="M-1-1h1922v1202H-1z"/>
</svg>
